<svg id="svg" version="1.1" xmlns="http://www.w3.org/2000/svg" xmlns:xlink="http://www.w3.org/1999/xlink" width="400" height="107.94979079497908" viewBox="0, 0, 400,107.94979079497908"><g id="svgg"><path id="path0" d="M324.333 9.250 C 324.333 9.639,324.278 9.667,323.500 9.667 C 322.722 9.667,322.667 9.694,322.667 10.083 C 322.667 10.417,322.583 10.500,322.250 10.500 C 321.917 10.500,321.833 10.583,321.833 10.917 C 321.833 11.253,321.751 11.333,321.404 11.333 C 321.014 11.333,320.977 11.390,321.003 11.958 C 321.049 12.941,321.025 13.000,320.583 13.000 L 320.167 13.000 320.167 15.500 L 320.167 18.000 320.574 18.000 C 320.942 18.000,320.987 18.077,321.033 18.792 C 321.076 19.467,321.138 19.591,321.458 19.637 C 321.730 19.675,321.833 19.802,321.833 20.095 C 321.833 20.416,321.920 20.500,322.250 20.500 C 322.583 20.500,322.667 20.583,322.667 20.917 C 322.667 21.306,322.722 21.333,323.500 21.333 C 324.280 21.333,324.333 21.360,324.333 21.754 L 324.333 22.175 327.208 22.129 C 330.027 22.084,330.084 22.076,330.135 21.717 C 330.179 21.408,330.310 21.343,330.969 21.300 C 331.634 21.258,331.758 21.194,331.803 20.875 C 331.842 20.604,331.968 20.500,332.262 20.500 C 332.583 20.500,332.667 20.413,332.667 20.083 C 332.667 19.750,332.750 19.667,333.083 19.667 C 333.413 19.667,333.500 19.583,333.500 19.262 C 333.500 18.968,333.604 18.842,333.875 18.803 C 334.194 18.758,334.258 18.634,334.300 17.969 C 334.343 17.310,334.408 17.179,334.717 17.135 C 335.073 17.085,335.085 17.014,335.129 14.625 L 335.176 12.167 334.764 12.167 C 334.390 12.167,334.347 12.092,334.301 11.375 C 334.257 10.699,334.195 10.576,333.875 10.530 C 333.604 10.492,333.500 10.365,333.500 10.072 C 333.500 9.697,333.438 9.667,332.667 9.667 C 331.889 9.667,331.833 9.639,331.833 9.250 L 331.833 8.833 328.083 8.833 L 324.333 8.833 324.333 9.250 M63.167 15.913 L 63.167 16.325 60.292 16.371 C 57.453 16.416,57.416 16.421,57.363 16.792 C 57.304 17.211,57.421 17.201,52.875 17.167 L 50.667 17.151 50.667 17.575 L 50.667 18.000 46.917 18.000 L 43.167 18.000 43.167 18.417 L 43.167 18.833 38.178 18.833 L 33.190 18.833 33.137 19.208 C 33.099 19.476,32.953 19.598,32.629 19.636 C 32.274 19.677,32.183 19.768,32.212 20.052 C 32.241 20.329,32.150 20.428,31.833 20.465 L 31.417 20.514 31.432 23.382 L 31.447 26.250 31.867 26.300 C 32.252 26.347,32.285 26.416,32.268 27.134 C 32.251 27.869,32.278 27.920,32.708 27.969 C 33.321 28.040,33.436 29.667,32.829 29.667 C 32.287 29.667,32.200 30.236,32.270 33.359 L 32.335 36.297 31.936 36.397 C 31.395 36.533,31.348 36.844,31.425 39.757 C 31.489 42.218,31.484 42.264,31.135 42.290 C 30.570 42.332,30.533 42.556,30.603 45.439 L 30.670 48.167 30.270 48.167 C 29.713 48.167,29.686 48.317,29.772 50.934 C 29.858 53.554,29.796 54.000,29.348 54.000 C 28.905 54.000,28.881 54.152,28.934 56.708 L 28.981 59.000 28.591 59.000 C 28.069 59.000,28.043 59.123,28.097 61.292 C 28.143 63.156,28.141 63.167,27.756 63.167 C 27.246 63.167,27.167 63.426,27.167 65.097 C 27.167 66.362,27.136 66.500,26.851 66.500 C 26.440 66.500,26.333 66.812,26.333 68.014 C 26.333 68.886,26.295 69.000,26.003 69.000 C 25.324 69.000,25.276 72.782,25.952 73.078 C 26.274 73.220,26.326 73.387,26.368 74.412 C 26.413 75.483,26.449 75.588,26.792 75.637 C 27.106 75.681,27.167 75.793,27.167 76.325 C 27.167 77.089,27.378 77.291,28.252 77.363 C 28.787 77.406,28.917 77.481,28.917 77.750 C 28.917 78.078,29.028 78.083,36.000 78.083 C 42.972 78.083,43.083 78.078,43.083 77.750 C 43.083 77.433,43.222 77.413,46.000 77.333 C 48.869 77.251,48.918 77.244,48.970 76.875 L 49.023 76.500 53.178 76.500 L 57.333 76.500 57.333 76.086 L 57.333 75.672 61.875 75.628 L 66.417 75.583 66.469 75.214 C 66.519 74.866,66.613 74.842,68.136 74.798 C 69.666 74.752,69.753 74.731,69.803 74.375 C 69.850 74.044,69.953 74.000,70.678 74.000 C 71.439 74.000,71.500 73.970,71.500 73.592 C 71.500 73.225,71.577 73.180,72.292 73.134 L 73.083 73.083 73.083 69.833 C 73.083 66.590,73.083 66.583,72.708 66.530 C 72.432 66.491,72.333 66.366,72.333 66.056 C 72.333 65.654,72.295 65.637,71.500 65.692 C 70.687 65.749,70.666 65.739,70.667 65.289 L 70.667 64.828 66.125 64.872 L 61.583 64.917 61.530 65.292 C 61.478 65.661,61.442 65.667,58.988 65.667 L 56.500 65.667 56.500 66.083 L 56.500 66.500 53.167 66.500 L 49.833 66.500 49.833 66.917 L 49.833 67.333 46.083 67.333 L 42.333 67.333 42.333 67.750 L 42.333 68.167 40.583 68.167 L 38.833 68.167 38.833 64.428 L 38.833 60.690 39.208 60.637 C 39.608 60.580,39.623 60.476,39.656 57.458 C 39.665 56.636,39.711 56.500,39.980 56.500 C 40.483 56.500,40.688 56.087,40.656 55.138 C 40.640 54.650,40.636 54.156,40.647 54.042 C 40.661 53.891,41.103 53.833,42.238 53.833 C 43.741 53.833,43.812 53.817,43.863 53.458 C 43.916 53.091,43.965 53.082,46.458 53.037 L 49.000 52.991 49.000 52.579 L 49.000 52.167 52.750 52.167 L 56.500 52.167 56.500 51.750 L 56.500 51.333 59.417 51.333 L 62.333 51.333 62.333 50.917 L 62.333 50.500 65.250 50.500 L 68.167 50.500 68.167 50.083 C 68.167 49.694,68.222 49.667,69.000 49.667 C 69.778 49.667,69.833 49.639,69.833 49.250 C 69.833 48.917,69.917 48.833,70.250 48.833 C 70.583 48.833,70.667 48.750,70.667 48.417 C 70.667 48.082,70.750 48.000,71.087 48.000 L 71.508 48.000 71.462 45.125 C 71.417 42.255,71.416 42.250,71.042 42.290 C 70.732 42.322,70.667 42.247,70.667 41.859 C 70.667 41.449,70.603 41.389,70.174 41.389 C 69.903 41.389,69.719 41.450,69.766 41.526 C 69.812 41.601,69.678 41.599,69.467 41.521 C 69.232 41.435,69.064 41.219,69.033 40.963 C 68.983 40.552,68.833 40.515,67.890 40.681 C 67.813 40.695,67.712 40.695,67.667 40.681 C 67.362 40.591,57.672 40.644,57.521 40.737 C 57.418 40.801,57.333 40.958,57.333 41.086 C 57.333 41.419,56.480 41.534,54.708 41.439 L 53.167 41.356 53.167 41.845 L 53.167 42.334 49.000 42.246 L 44.833 42.159 44.833 42.663 L 44.833 43.167 43.125 43.144 C 42.185 43.131,41.578 43.090,41.775 43.051 C 42.163 42.975,42.316 42.456,42.308 41.250 C 42.293 38.995,42.315 38.859,42.708 38.803 C 43.118 38.745,43.123 38.724,43.150 36.720 C 43.165 35.612,43.194 35.519,43.542 35.470 C 43.963 35.410,43.959 35.436,43.984 32.958 C 43.999 31.469,44.027 31.333,44.322 31.333 C 44.690 31.333,44.871 30.900,44.829 30.121 C 44.769 29.032,44.821 28.833,45.163 28.833 C 45.377 28.833,45.531 28.686,45.598 28.417 C 45.701 28.007,45.732 28.000,47.351 28.000 C 48.999 28.000,49.000 28.000,49.000 27.583 L 49.000 27.167 52.333 27.167 L 55.667 27.167 55.667 26.750 L 55.667 26.333 62.750 26.333 L 69.833 26.333 69.833 25.917 L 69.833 25.500 72.333 25.500 L 74.833 25.500 74.833 25.092 C 74.833 24.725,74.910 24.680,75.625 24.634 L 76.417 24.583 76.467 23.792 C 76.513 23.077,76.558 23.000,76.926 23.000 C 77.303 23.000,77.333 22.939,77.333 22.178 C 77.333 21.453,77.377 21.350,77.708 21.303 C 78.034 21.257,78.083 21.151,78.083 20.500 C 78.083 19.849,78.034 19.743,77.708 19.697 C 77.358 19.647,77.333 19.562,77.333 18.405 C 77.333 17.195,77.324 17.167,76.917 17.167 C 76.583 17.167,76.500 17.083,76.500 16.750 C 76.500 16.417,76.417 16.333,76.083 16.333 C 75.750 16.333,75.667 16.250,75.667 15.917 L 75.667 15.500 69.417 15.500 L 63.167 15.500 63.167 15.913 M186.167 15.917 C 186.167 16.250,186.083 16.333,185.750 16.333 C 185.420 16.333,185.333 16.417,185.333 16.738 C 185.333 17.032,185.230 17.158,184.958 17.197 C 184.639 17.242,184.576 17.366,184.533 18.031 C 184.490 18.690,184.425 18.821,184.116 18.865 C 183.771 18.914,183.747 19.012,183.702 20.542 C 183.655 22.145,183.649 22.167,183.244 22.167 C 182.835 22.167,182.833 22.174,182.833 23.822 C 182.833 25.411,182.818 25.479,182.458 25.530 C 182.103 25.581,182.081 25.667,182.036 27.208 C 181.989 28.811,181.982 28.833,181.577 28.833 C 181.178 28.833,181.167 28.867,181.167 30.072 C 181.167 31.229,181.142 31.314,180.792 31.363 C 180.448 31.412,180.413 31.516,180.368 32.625 L 180.319 33.833 174.493 33.833 L 168.667 33.833 168.667 34.238 C 168.667 34.532,168.563 34.658,168.292 34.697 C 167.917 34.750,167.917 34.757,167.917 38.000 C 167.917 41.243,167.917 41.250,168.292 41.303 C 168.563 41.342,168.667 41.468,168.667 41.762 C 168.667 42.137,168.729 42.167,169.500 42.167 C 170.278 42.167,170.333 42.194,170.333 42.583 C 170.333 42.991,170.361 43.000,171.583 43.000 C 172.806 43.000,172.833 43.009,172.833 43.417 L 172.833 43.833 174.917 43.833 L 177.000 43.833 177.000 43.417 C 177.000 43.083,177.083 43.000,177.417 43.000 C 177.745 43.000,177.833 43.085,177.833 43.399 C 177.833 43.685,177.716 43.827,177.417 43.902 C 177.007 44.005,177.000 44.035,177.000 45.658 C 177.000 47.244,176.985 47.312,176.625 47.363 C 176.262 47.415,176.248 47.484,176.203 49.458 L 176.156 51.500 175.745 51.500 L 175.333 51.500 175.333 53.583 L 175.333 55.667 174.917 55.667 L 174.500 55.667 174.500 58.167 L 174.500 60.667 174.083 60.667 L 173.667 60.667 173.667 65.163 L 173.667 69.660 174.083 69.765 C 174.481 69.865,174.500 69.926,174.500 71.101 C 174.500 72.304,174.510 72.333,174.917 72.333 C 175.306 72.333,175.333 72.389,175.333 73.167 C 175.333 73.944,175.361 74.000,175.750 74.000 C 176.083 74.000,176.167 74.083,176.167 74.417 C 176.167 74.750,176.250 74.833,176.583 74.833 C 176.917 74.833,177.000 74.917,177.000 75.250 C 177.000 75.583,177.083 75.667,177.417 75.667 C 177.750 75.667,177.833 75.750,177.833 76.083 C 177.833 76.417,177.917 76.500,178.250 76.500 C 178.583 76.500,178.667 76.583,178.667 76.917 C 178.667 77.305,178.723 77.333,179.488 77.333 C 180.214 77.333,180.316 77.377,180.363 77.708 L 180.417 78.083 185.792 78.127 L 191.167 78.171 191.167 77.760 C 191.167 77.364,191.214 77.346,192.375 77.299 C 193.475 77.254,193.588 77.217,193.635 76.884 C 193.679 76.575,193.810 76.510,194.469 76.467 C 195.134 76.424,195.258 76.361,195.303 76.042 C 195.342 75.770,195.468 75.667,195.762 75.667 C 196.083 75.667,196.167 75.580,196.167 75.250 C 196.167 74.861,196.222 74.833,197.000 74.833 C 197.778 74.833,197.833 74.806,197.833 74.417 C 197.833 74.083,197.917 74.000,198.250 74.000 C 198.583 74.000,198.667 73.917,198.667 73.583 C 198.667 73.250,198.750 73.167,199.083 73.167 C 199.417 73.167,199.500 73.083,199.500 72.750 C 199.500 72.398,199.578 72.333,200.000 72.333 C 200.275 72.333,200.491 72.277,200.480 72.208 C 200.403 71.716,200.536 71.500,200.917 71.500 C 201.146 71.500,201.324 71.444,201.314 71.375 C 201.245 70.938,201.381 70.683,201.708 70.637 C 201.951 70.602,202.084 70.468,202.084 70.257 C 202.084 70.051,202.231 69.897,202.485 69.837 C 202.706 69.785,202.906 69.606,202.931 69.439 C 202.955 69.272,202.999 69.124,203.029 69.110 C 203.645 68.810,203.754 68.657,203.801 68.033 C 203.838 67.530,203.937 67.323,204.176 67.247 C 204.354 67.191,204.508 67.056,204.517 66.947 C 204.741 64.351,204.634 63.167,204.173 63.167 C 203.990 63.167,203.829 63.005,203.768 62.761 L 203.666 62.354 200.833 62.350 L 198.000 62.346 198.000 62.745 C 198.000 63.057,197.899 63.156,197.542 63.197 C 197.213 63.235,197.068 63.356,197.030 63.625 C 196.991 63.897,196.865 64.000,196.569 64.000 C 196.219 64.000,196.175 64.058,196.263 64.407 C 196.360 64.797,196.327 64.817,195.474 64.866 C 194.696 64.910,194.577 64.964,194.530 65.292 C 194.491 65.565,194.365 65.667,194.064 65.667 C 193.831 65.667,193.664 65.757,193.679 65.875 C 193.750 66.424,193.647 66.500,192.835 66.500 C 192.072 66.500,192.007 66.531,192.044 66.875 C 192.082 67.238,192.032 67.252,190.460 67.298 C 188.891 67.344,188.833 67.359,188.734 67.756 C 188.575 68.389,187.000 68.383,187.000 67.750 C 187.000 67.417,186.917 67.333,186.583 67.333 C 186.250 67.333,186.167 67.250,186.167 66.917 C 186.167 66.583,186.083 66.500,185.750 66.500 L 185.333 66.500 185.333 62.762 L 185.333 59.023 185.708 58.970 C 186.071 58.918,186.085 58.849,186.130 56.892 C 186.176 54.894,186.182 54.866,186.588 54.764 C 186.999 54.661,187.000 54.653,187.000 52.580 L 187.000 50.500 187.417 50.500 C 187.833 50.500,187.833 50.499,187.833 48.845 C 187.833 47.255,187.848 47.188,188.208 47.137 C 188.602 47.081,188.610 47.034,188.656 44.470 C 188.665 43.965,188.733 43.847,189.042 43.803 C 189.362 43.758,189.424 43.634,189.467 42.958 L 189.518 42.167 190.384 42.154 C 190.860 42.148,191.794 42.153,192.458 42.165 C 193.650 42.188,193.667 42.183,193.667 41.761 L 193.667 41.333 196.167 41.333 L 198.667 41.333 198.667 40.917 L 198.667 40.500 200.833 40.500 L 203.000 40.500 203.000 40.083 L 203.000 39.667 204.667 39.667 L 206.333 39.667 206.333 39.250 C 206.333 38.861,206.389 38.833,207.167 38.833 C 207.944 38.833,208.000 38.806,208.000 38.417 C 208.000 38.083,208.083 38.000,208.417 38.000 C 208.747 38.000,208.833 37.916,208.833 37.595 C 208.833 37.302,208.937 37.175,209.208 37.137 C 209.790 37.054,209.799 32.281,209.219 32.198 C 208.991 32.166,208.834 32.009,208.802 31.781 L 208.750 31.417 202.129 31.373 L 195.507 31.330 195.402 31.748 C 195.240 32.396,192.000 32.409,192.000 31.762 C 192.000 31.468,192.104 31.342,192.375 31.303 C 192.731 31.253,192.752 31.167,192.798 29.625 C 192.845 28.022,192.851 28.000,193.256 28.000 C 193.656 28.000,193.667 27.967,193.667 26.762 C 193.667 25.604,193.691 25.520,194.042 25.470 C 194.397 25.419,194.419 25.333,194.464 23.802 C 194.509 22.280,194.533 22.185,194.881 22.136 C 195.463 22.053,195.458 18.113,194.875 18.030 C 194.604 17.992,194.500 17.865,194.500 17.572 C 194.500 17.251,194.413 17.167,194.083 17.167 C 193.750 17.167,193.667 17.083,193.667 16.750 C 193.667 16.417,193.583 16.333,193.250 16.333 C 192.917 16.333,192.833 16.250,192.833 15.917 L 192.833 15.500 189.500 15.500 L 186.167 15.500 186.167 15.917 M264.000 28.417 C 264.000 28.788,263.931 28.833,263.367 28.833 C 262.568 28.833,262.333 29.068,262.333 29.867 C 262.333 30.431,262.288 30.500,261.917 30.500 C 261.529 30.500,261.500 30.556,261.500 31.322 C 261.500 32.047,261.456 32.150,261.125 32.197 L 260.750 32.250 260.707 41.447 L 260.664 50.644 260.290 50.697 L 259.917 50.750 259.873 55.708 L 259.828 60.667 259.414 60.667 L 259.000 60.667 259.000 63.988 C 259.000 67.306,259.000 67.310,258.625 67.363 C 258.187 67.426,258.208 67.276,258.184 70.613 C 258.167 73.104,258.161 73.144,257.792 73.197 C 257.425 73.249,257.416 73.302,257.371 75.708 L 257.324 78.167 256.912 78.167 C 256.685 78.167,256.509 78.223,256.520 78.292 C 256.531 78.360,256.531 79.298,256.520 80.375 L 256.500 82.333 256.083 82.333 C 255.667 82.333,255.667 82.335,255.667 83.982 C 255.667 85.601,255.659 85.632,255.250 85.735 C 254.835 85.839,254.833 85.846,254.833 87.825 C 254.833 89.757,254.823 89.812,254.458 89.863 C 254.103 89.914,254.081 90.000,254.036 91.540 C 253.990 93.109,253.974 93.167,253.577 93.266 L 253.167 93.369 253.167 97.435 L 253.167 101.500 253.583 101.500 C 253.917 101.500,254.000 101.583,254.000 101.917 C 254.000 102.250,254.083 102.333,254.417 102.333 C 254.750 102.333,254.833 102.417,254.833 102.750 C 254.833 103.083,254.917 103.167,255.250 103.167 C 255.583 103.167,255.667 103.250,255.667 103.583 L 255.667 104.000 259.000 104.000 L 262.333 104.000 262.333 103.583 C 262.333 103.250,262.417 103.167,262.750 103.167 C 263.083 103.167,263.167 103.083,263.167 102.750 C 263.167 102.417,263.250 102.333,263.583 102.333 C 263.971 102.333,264.000 102.277,264.000 101.512 C 264.000 100.786,264.044 100.684,264.375 100.637 C 264.742 100.584,264.751 100.532,264.796 98.125 L 264.842 95.667 265.254 95.667 L 265.667 95.667 265.667 92.345 C 265.667 89.027,265.667 89.023,266.042 88.970 C 266.414 88.917,266.417 88.896,266.462 85.636 C 266.507 82.386,266.510 82.355,266.878 82.303 C 267.275 82.246,267.262 82.401,267.327 77.060 C 267.332 76.643,267.418 76.515,267.750 76.432 C 268.039 76.359,268.167 76.213,268.167 75.955 C 268.166 75.569,269.801 75.466,269.854 75.849 C 269.866 75.932,269.884 76.094,269.896 76.208 C 269.912 76.368,270.973 76.427,274.458 76.461 L 279.000 76.505 279.000 76.093 C 279.000 75.694,279.042 75.679,280.292 75.632 C 281.174 75.599,281.590 75.517,281.604 75.375 C 281.616 75.260,281.634 75.095,281.646 75.008 C 281.657 74.920,282.173 74.826,282.792 74.799 C 283.814 74.755,283.922 74.716,283.970 74.375 C 284.011 74.084,284.132 74.000,284.512 74.000 C 284.919 74.000,285.000 73.932,285.000 73.592 C 285.000 73.225,285.077 73.180,285.792 73.134 C 286.467 73.091,286.591 73.028,286.637 72.708 C 286.682 72.392,286.792 72.333,287.349 72.333 C 287.893 72.333,288.035 72.263,288.162 71.929 C 288.251 71.695,288.477 71.503,288.699 71.471 C 288.945 71.436,289.102 71.286,289.135 71.052 C 289.168 70.825,289.325 70.668,289.552 70.635 C 289.779 70.603,289.936 70.446,289.969 70.219 C 290.001 69.991,290.158 69.834,290.385 69.802 C 290.616 69.769,290.770 69.612,290.803 69.375 C 290.842 69.104,290.968 69.000,291.262 69.000 C 291.583 69.000,291.667 68.913,291.667 68.583 C 291.667 68.250,291.750 68.167,292.083 68.167 C 292.417 68.167,292.500 68.083,292.500 67.750 C 292.500 67.417,292.583 67.333,292.917 67.333 C 293.250 67.333,293.333 67.250,293.333 66.917 C 293.333 66.583,293.417 66.500,293.750 66.500 C 294.083 66.500,294.167 66.417,294.167 66.083 C 294.167 65.750,294.250 65.667,294.583 65.667 C 294.917 65.667,295.000 65.583,295.000 65.250 C 295.000 64.917,295.083 64.833,295.417 64.833 C 295.747 64.833,295.833 64.749,295.833 64.428 C 295.833 64.135,295.937 64.008,296.208 63.970 C 296.446 63.936,296.602 63.783,296.635 63.552 C 296.668 63.325,296.825 63.168,297.052 63.135 C 297.277 63.103,297.436 62.946,297.468 62.724 C 297.499 62.505,297.678 62.325,297.926 62.262 C 298.282 62.173,298.333 62.066,298.333 61.413 C 298.333 61.003,298.408 60.657,298.500 60.646 C 298.592 60.634,298.760 60.616,298.875 60.604 C 298.990 60.593,299.106 60.422,299.135 60.224 C 299.165 60.008,299.344 59.825,299.584 59.765 C 299.923 59.680,299.989 59.548,300.033 58.874 C 300.075 58.211,300.137 58.083,300.417 58.083 C 300.695 58.083,300.758 57.955,300.800 57.302 C 300.843 56.643,300.908 56.513,301.217 56.469 C 301.525 56.425,301.597 56.284,301.667 55.583 C 301.736 54.889,301.806 54.750,302.083 54.750 C 302.368 54.750,302.424 54.622,302.467 53.875 C 302.513 53.071,302.551 53.000,302.925 53.000 C 303.322 53.000,303.333 52.964,303.333 51.762 C 303.333 50.604,303.358 50.520,303.708 50.470 C 304.071 50.418,304.085 50.349,304.130 48.375 L 304.177 46.333 304.591 46.333 L 305.005 46.333 304.961 41.792 L 304.917 37.250 304.549 37.288 C 304.201 37.325,304.178 37.255,304.132 36.038 C 304.087 34.846,304.055 34.746,303.708 34.697 C 303.384 34.651,303.333 34.544,303.333 33.908 C 303.333 33.268,303.281 33.160,302.926 33.071 C 302.678 33.009,302.499 32.828,302.468 32.609 C 302.436 32.384,302.277 32.230,302.042 32.197 C 301.770 32.158,301.667 32.032,301.667 31.738 C 301.667 31.421,301.579 31.333,301.262 31.333 C 300.968 31.333,300.842 31.230,300.803 30.958 C 300.758 30.638,300.634 30.576,299.958 30.533 C 299.244 30.487,299.167 30.442,299.167 30.074 C 299.167 29.696,299.106 29.667,298.333 29.667 C 297.556 29.667,297.500 29.639,297.500 29.250 L 297.500 28.833 293.333 28.833 L 289.167 28.833 289.167 29.250 C 289.167 29.657,289.139 29.667,287.917 29.667 C 286.694 29.667,286.667 29.676,286.667 30.083 C 286.667 30.472,286.611 30.500,285.833 30.500 C 285.056 30.500,285.000 30.528,285.000 30.917 C 285.000 31.250,284.917 31.333,284.583 31.333 C 284.250 31.333,284.167 31.417,284.167 31.750 C 284.167 32.086,284.084 32.167,283.740 32.167 C 283.447 32.167,283.351 32.232,283.431 32.375 C 283.525 32.542,283.504 32.542,283.324 32.375 C 282.933 32.012,282.500 32.121,282.500 32.583 C 282.500 32.917,282.417 33.000,282.083 33.000 C 281.750 33.000,281.667 33.083,281.667 33.417 C 281.667 33.750,281.583 33.833,281.250 33.833 C 280.919 33.833,280.833 33.917,280.833 34.241 C 280.833 34.609,280.756 34.653,280.042 34.699 C 279.373 34.742,279.242 34.807,279.198 35.115 C 279.166 35.342,279.009 35.499,278.781 35.531 C 278.551 35.564,278.397 35.721,278.363 35.958 C 278.326 36.223,278.197 36.333,277.926 36.333 C 277.630 36.333,277.518 36.451,277.439 36.845 C 277.355 37.265,277.277 37.338,277.002 37.251 C 276.676 37.147,276.604 37.278,276.618 37.937 C 276.621 38.040,276.484 38.088,276.314 38.043 C 276.097 37.987,275.958 38.087,275.846 38.384 C 275.758 38.615,275.540 38.851,275.361 38.908 C 274.974 39.031,274.783 39.817,275.056 40.157 C 275.206 40.343,275.203 40.369,275.042 40.272 C 274.914 40.195,274.833 40.239,274.833 40.385 C 274.833 40.527,274.682 40.615,274.458 40.603 C 274.158 40.587,274.087 40.668,274.101 41.008 C 274.115 41.361,274.044 41.432,273.684 41.425 C 273.314 41.418,273.253 41.485,273.269 41.879 C 273.285 42.268,273.235 42.325,272.957 42.236 C 272.758 42.173,272.567 42.222,272.482 42.357 C 272.314 42.621,272.274 41.708,272.315 38.583 C 272.333 37.188,272.340 37.167,272.750 37.167 L 273.167 37.167 273.167 35.170 C 273.167 33.179,273.165 33.173,272.750 33.068 C 272.420 32.985,272.331 32.856,272.323 32.440 C 272.269 29.755,272.268 29.753,271.875 29.697 C 271.604 29.658,271.500 29.532,271.500 29.238 C 271.500 28.917,271.413 28.833,271.083 28.833 C 270.750 28.833,270.667 28.750,270.667 28.417 L 270.667 28.000 267.333 28.000 L 264.000 28.000 264.000 28.417 M100.944 28.944 C 100.883 29.006,100.833 29.193,100.833 29.361 C 100.833 29.617,100.697 29.667,100.000 29.667 C 99.227 29.667,99.167 29.696,99.167 30.074 C 99.167 30.442,99.090 30.487,98.375 30.533 C 97.699 30.576,97.576 30.638,97.530 30.958 C 97.492 31.230,97.365 31.333,97.072 31.333 C 96.751 31.333,96.667 31.420,96.667 31.750 C 96.667 32.120,96.597 32.167,96.042 32.169 C 95.198 32.173,94.858 32.396,95.100 32.787 C 95.262 33.047,95.221 33.084,94.767 33.083 C 94.358 33.083,94.239 33.161,94.197 33.458 C 94.158 33.730,94.032 33.833,93.738 33.833 C 93.421 33.833,93.333 33.921,93.333 34.238 C 93.333 34.532,93.230 34.658,92.958 34.697 C 92.721 34.730,92.564 34.884,92.531 35.115 C 92.499 35.342,92.342 35.499,92.115 35.531 C 91.889 35.563,91.730 35.721,91.699 35.943 C 91.668 36.159,91.489 36.342,91.250 36.402 C 90.910 36.487,90.844 36.618,90.801 37.293 C 90.758 37.956,90.696 38.083,90.417 38.081 C 90.195 38.080,90.053 38.219,89.994 38.498 C 89.927 38.810,89.810 38.907,89.535 38.877 C 89.246 38.846,89.167 38.923,89.167 39.240 C 89.167 39.532,89.063 39.658,88.792 39.697 C 88.476 39.742,88.408 39.869,88.364 40.497 C 88.310 41.252,88.091 41.560,87.708 41.420 C 87.578 41.373,87.500 41.494,87.500 41.744 C 87.500 42.031,87.395 42.158,87.125 42.197 C 86.797 42.243,86.744 42.362,86.699 43.141 C 86.651 43.986,86.628 44.026,86.252 43.932 C 85.914 43.847,85.848 43.900,85.803 44.291 C 85.765 44.620,85.644 44.765,85.375 44.803 C 85.052 44.849,85.000 44.957,85.000 45.577 C 85.000 46.206,84.947 46.310,84.583 46.402 C 84.217 46.494,84.167 46.596,84.167 47.250 C 84.167 47.904,84.117 48.006,83.750 48.098 C 83.377 48.192,83.333 48.287,83.333 49.018 C 83.333 49.773,83.303 49.833,82.924 49.833 C 82.531 49.833,82.513 49.883,82.466 51.042 C 82.421 52.150,82.386 52.254,82.042 52.303 C 81.691 52.353,81.667 52.438,81.667 53.595 C 81.667 54.814,81.660 54.833,81.238 54.833 C 80.825 54.833,80.811 54.867,80.835 55.792 C 80.895 58.038,80.872 58.167,80.417 58.167 L 80.000 58.167 80.000 63.080 L 80.000 67.994 80.417 68.098 C 80.811 68.197,80.833 68.265,80.833 69.348 C 80.833 70.431,80.856 70.499,81.250 70.598 C 81.615 70.690,81.667 70.793,81.667 71.432 C 81.667 72.070,81.718 72.173,82.083 72.265 C 82.382 72.340,82.500 72.482,82.500 72.768 C 82.500 73.082,82.588 73.167,82.917 73.167 C 83.250 73.167,83.333 73.250,83.333 73.583 C 83.333 73.917,83.417 74.000,83.750 74.000 C 84.083 74.000,84.167 74.083,84.167 74.417 C 84.167 74.750,84.250 74.833,84.583 74.833 C 84.917 74.833,85.000 74.917,85.000 75.250 C 85.000 75.639,85.056 75.667,85.833 75.667 C 86.611 75.667,86.667 75.694,86.667 76.083 C 86.667 76.471,86.723 76.500,87.488 76.500 C 88.214 76.500,88.316 76.544,88.363 76.875 L 88.417 77.250 94.625 77.294 L 100.833 77.338 100.833 76.919 C 100.833 76.509,100.859 76.500,102.083 76.500 C 103.306 76.500,103.333 76.491,103.333 76.083 C 103.333 75.675,103.360 75.667,104.602 75.667 L 105.871 75.667 105.804 75.208 C 105.736 74.752,105.739 74.750,106.618 74.807 C 107.466 74.862,107.500 74.848,107.500 74.441 C 107.500 74.055,107.569 74.014,108.292 73.967 C 108.967 73.924,109.091 73.862,109.137 73.542 C 109.175 73.270,109.302 73.167,109.595 73.167 C 109.913 73.167,110.000 73.080,110.000 72.759 C 110.000 72.391,110.077 72.347,110.792 72.301 C 111.505 72.255,111.588 72.207,111.634 71.816 C 111.676 71.455,111.752 71.396,112.092 71.461 C 112.441 71.528,112.500 71.476,112.500 71.103 C 112.500 70.749,112.578 70.667,112.917 70.667 C 113.250 70.667,113.333 70.583,113.333 70.250 C 113.333 69.917,113.417 69.833,113.750 69.833 C 114.083 69.833,114.167 69.750,114.167 69.417 C 114.167 69.083,114.250 69.000,114.583 69.000 C 114.917 69.000,115.000 68.917,115.000 68.583 C 115.000 68.250,115.083 68.167,115.417 68.167 C 115.750 68.167,115.833 68.083,115.833 67.750 C 115.833 67.417,115.917 67.333,116.250 67.333 C 116.580 67.333,116.667 67.249,116.667 66.928 C 116.667 66.635,116.770 66.508,117.042 66.470 C 117.404 66.418,117.418 66.349,117.463 64.375 L 117.510 62.333 117.088 62.333 C 116.753 62.333,116.667 62.250,116.667 61.929 L 116.667 61.526 114.161 61.519 C 112.774 61.515,111.695 61.577,111.744 61.658 C 111.990 62.056,111.611 62.333,110.821 62.333 C 110.243 62.333,110.032 62.393,110.087 62.542 C 110.227 62.924,109.918 63.143,109.164 63.197 C 108.511 63.243,108.418 63.297,108.430 63.625 C 108.441 63.927,108.353 64.000,107.983 64.000 C 107.582 64.000,107.532 64.055,107.598 64.417 C 107.671 64.820,107.644 64.833,106.753 64.833 C 105.883 64.833,105.833 64.856,105.833 65.250 C 105.833 65.639,105.778 65.667,105.000 65.667 C 104.226 65.667,104.167 65.696,104.167 66.076 C 104.167 66.469,104.117 66.487,102.958 66.534 C 101.850 66.579,101.746 66.614,101.697 66.958 C 101.646 67.318,101.578 67.333,99.988 67.333 C 98.334 67.333,98.333 67.334,98.333 67.750 L 98.333 68.167 96.667 68.167 L 95.000 68.167 95.000 67.750 C 95.000 67.362,94.944 67.333,94.178 67.333 C 93.453 67.333,93.350 67.289,93.303 66.958 C 93.270 66.723,93.116 66.564,92.891 66.532 C 92.672 66.501,92.491 66.322,92.429 66.074 C 92.365 65.818,92.207 65.667,92.006 65.667 C 91.741 65.667,91.676 65.528,91.634 64.875 C 91.591 64.199,91.528 64.076,91.208 64.030 C 90.671 63.954,90.628 62.167,91.163 62.167 C 91.599 62.167,91.660 61.849,91.709 59.333 C 91.748 57.375,91.770 57.250,92.083 57.250 C 92.381 57.250,92.422 57.123,92.465 56.052 C 92.510 54.962,92.547 54.850,92.882 54.802 C 93.200 54.757,93.257 54.632,93.300 53.875 C 93.347 53.071,93.384 53.000,93.759 53.000 C 94.137 53.000,94.167 52.940,94.167 52.167 C 94.167 51.389,94.194 51.333,94.583 51.333 C 94.972 51.333,95.000 51.278,95.000 50.500 C 95.000 49.722,95.028 49.667,95.417 49.667 C 95.806 49.667,95.833 49.611,95.833 48.833 C 95.833 48.056,95.861 48.000,96.250 48.000 C 96.580 48.000,96.667 47.916,96.667 47.595 C 96.667 47.302,96.770 47.175,97.042 47.137 C 97.362 47.091,97.424 46.967,97.467 46.292 C 97.513 45.577,97.558 45.500,97.926 45.500 C 98.304 45.500,98.333 45.439,98.333 44.667 C 98.333 43.889,98.361 43.833,98.750 43.833 C 99.083 43.833,99.167 43.750,99.167 43.417 C 99.167 43.083,99.250 43.000,99.583 43.000 C 99.917 43.000,100.000 42.917,100.000 42.583 C 100.000 42.250,100.083 42.167,100.417 42.167 C 100.750 42.167,100.833 42.083,100.833 41.750 C 100.833 41.417,100.917 41.333,101.250 41.333 C 101.583 41.333,101.667 41.250,101.667 40.917 C 101.667 40.583,101.750 40.500,102.083 40.500 C 102.412 40.500,102.500 40.416,102.500 40.099 C 102.500 39.436,104.102 39.382,104.233 40.042 C 104.297 40.361,104.428 40.500,104.662 40.500 C 104.979 40.500,105.000 40.604,105.000 42.167 C 105.000 43.825,105.002 43.833,105.409 43.833 C 105.802 43.833,105.821 43.883,105.868 45.042 C 105.913 46.150,105.948 46.254,106.292 46.303 C 106.563 46.342,106.667 46.468,106.667 46.762 C 106.667 47.078,106.754 47.167,107.066 47.167 C 107.462 47.167,107.754 47.558,107.574 47.848 C 107.519 47.937,108.692 48.000,110.407 48.000 L 113.333 48.000 113.333 47.583 C 113.333 47.250,113.417 47.167,113.750 47.167 C 114.083 47.167,114.167 47.083,114.167 46.750 C 114.167 46.417,114.250 46.333,114.583 46.333 C 114.991 46.333,115.000 46.306,115.000 45.083 C 115.000 43.861,115.009 43.833,115.417 43.833 L 115.833 43.833 115.833 41.003 L 115.833 38.173 115.417 38.068 C 114.970 37.956,114.959 37.916,114.998 36.458 C 115.023 35.534,115.009 35.500,114.595 35.500 C 114.192 35.500,114.167 35.451,114.167 34.667 C 114.167 33.894,114.137 33.833,113.759 33.833 C 113.391 33.833,113.347 33.756,113.301 33.042 C 113.257 32.366,113.195 32.242,112.875 32.197 C 112.604 32.158,112.500 32.032,112.500 31.738 C 112.500 31.417,112.413 31.333,112.083 31.333 C 111.750 31.333,111.667 31.250,111.667 30.917 C 111.667 30.583,111.583 30.500,111.250 30.500 C 110.917 30.500,110.833 30.417,110.833 30.083 C 110.833 29.694,110.778 29.667,110.000 29.667 C 109.222 29.667,109.167 29.639,109.167 29.250 L 109.167 28.833 105.111 28.833 C 102.881 28.833,101.006 28.883,100.944 28.944 M357.947 29.775 C 357.885 29.838,357.833 30.022,357.833 30.186 C 357.833 30.426,357.668 30.492,356.958 30.533 C 356.211 30.576,356.083 30.632,356.083 30.917 C 356.083 31.194,355.944 31.264,355.250 31.333 C 354.513 31.407,354.421 31.459,354.455 31.783 C 354.489 32.113,354.407 32.154,353.622 32.200 C 352.830 32.245,352.754 32.284,352.790 32.625 C 352.822 32.933,352.747 33.000,352.367 33.000 C 351.910 33.000,351.650 33.625,352.077 33.695 C 352.172 33.710,351.800 33.766,351.250 33.820 C 350.393 33.903,350.250 33.964,350.250 34.250 C 350.250 34.472,350.111 34.612,349.834 34.668 C 349.558 34.725,349.417 34.865,349.417 35.085 C 349.417 35.302,349.287 35.435,349.042 35.470 C 348.714 35.516,348.578 35.772,348.647 36.208 C 348.658 36.277,348.479 36.333,348.250 36.333 C 348.000 36.333,347.825 36.433,347.813 36.583 C 347.801 36.721,347.782 36.927,347.771 37.042 C 347.759 37.156,347.656 37.259,347.542 37.271 C 347.427 37.282,347.221 37.301,347.083 37.313 C 346.933 37.325,346.833 37.500,346.833 37.750 C 346.833 37.979,346.777 38.158,346.708 38.147 C 346.259 38.076,346.000 38.205,346.000 38.500 C 346.000 38.683,345.925 38.843,345.833 38.854 C 345.742 38.866,345.573 38.884,345.458 38.896 C 345.344 38.907,345.226 39.121,345.198 39.371 C 345.157 39.726,345.065 39.817,344.782 39.788 C 344.521 39.761,344.403 39.852,344.366 40.109 C 344.335 40.328,344.155 40.509,343.907 40.571 C 343.662 40.632,343.500 40.794,343.500 40.976 C 343.500 41.143,343.317 41.363,343.093 41.465 C 342.769 41.613,342.676 41.796,342.635 42.367 C 342.593 42.955,342.524 43.083,342.250 43.083 C 342.036 43.083,341.898 43.212,341.865 43.443 C 341.834 43.661,341.655 43.842,341.407 43.904 C 341.043 43.996,341.000 44.095,341.000 44.847 C 341.000 45.623,340.971 45.684,340.625 45.635 C 340.347 45.597,340.237 45.677,340.199 45.943 C 340.168 46.161,339.988 46.342,339.740 46.404 C 339.379 46.495,339.333 46.597,339.333 47.308 C 339.333 48.032,339.297 48.109,338.958 48.097 C 338.671 48.086,338.571 48.188,338.532 48.531 C 338.495 48.845,338.370 48.995,338.115 49.031 C 337.808 49.075,337.742 49.207,337.700 49.865 C 337.657 50.523,337.592 50.654,337.283 50.698 C 336.974 50.742,336.909 50.872,336.866 51.531 C 336.824 52.190,336.759 52.321,336.450 52.365 C 336.116 52.412,336.079 52.525,336.034 53.625 C 335.987 54.784,335.969 54.833,335.576 54.833 C 335.178 54.833,335.167 54.867,335.167 56.083 C 335.167 57.306,335.157 57.333,334.750 57.333 L 334.333 57.333 334.333 59.000 L 334.333 60.667 333.917 60.667 L 333.500 60.667 333.500 65.163 L 333.500 69.660 333.917 69.765 C 334.290 69.859,334.333 69.954,334.333 70.685 C 334.333 71.438,334.364 71.500,334.741 71.500 C 335.109 71.500,335.153 71.577,335.199 72.292 C 335.243 72.967,335.305 73.091,335.625 73.137 C 335.896 73.175,336.000 73.302,336.000 73.595 C 336.000 73.916,336.087 74.000,336.417 74.000 C 336.750 74.000,336.833 74.083,336.833 74.417 C 336.833 74.750,336.917 74.833,337.250 74.833 C 337.583 74.833,337.667 74.917,337.667 75.250 C 337.667 75.639,337.722 75.667,338.500 75.667 C 339.278 75.667,339.333 75.694,339.333 76.083 L 339.333 76.500 343.653 76.500 C 348.250 76.500,348.500 76.473,348.500 75.982 C 348.500 75.715,348.627 75.667,349.333 75.667 C 350.111 75.667,350.167 75.639,350.167 75.250 C 350.167 74.861,350.222 74.833,351.000 74.833 C 351.778 74.833,351.833 74.806,351.833 74.417 C 351.833 74.028,351.889 74.000,352.667 74.000 C 353.444 74.000,353.500 73.972,353.500 73.583 C 353.500 73.250,353.583 73.167,353.917 73.167 C 354.248 73.167,354.333 73.083,354.333 72.759 C 354.333 72.391,354.410 72.347,355.125 72.301 C 355.801 72.257,355.924 72.195,355.970 71.875 C 356.008 71.604,356.135 71.500,356.428 71.500 C 356.749 71.500,356.833 71.413,356.833 71.083 C 356.833 70.750,356.917 70.667,357.250 70.667 C 357.583 70.667,357.667 70.583,357.667 70.250 C 357.667 69.917,357.750 69.833,358.083 69.833 C 358.417 69.833,358.500 69.750,358.500 69.417 C 358.500 69.083,358.583 69.000,358.917 69.000 C 359.247 69.000,359.333 68.916,359.333 68.594 C 359.333 68.276,359.432 68.177,359.792 68.136 C 360.117 68.099,360.250 67.989,360.250 67.757 C 360.251 67.547,360.399 67.397,360.667 67.333 C 360.936 67.270,361.083 67.119,361.083 66.909 C 361.083 66.725,361.228 66.544,361.417 66.493 C 361.600 66.443,361.848 66.199,361.967 65.951 C 362.087 65.703,362.288 65.500,362.414 65.500 C 362.540 65.500,362.676 65.331,362.716 65.125 C 362.755 64.919,362.798 65.292,362.811 65.955 C 362.832 67.093,362.856 67.166,363.250 67.265 L 363.667 67.369 363.667 69.851 L 363.667 72.333 364.083 72.333 C 364.472 72.333,364.500 72.389,364.500 73.167 C 364.500 73.965,364.519 74.000,364.958 74.000 C 365.405 74.000,365.415 74.021,365.359 74.833 C 365.303 75.634,365.318 75.667,365.734 75.667 C 366.084 75.667,366.167 75.746,366.167 76.083 C 366.167 76.413,366.251 76.500,366.572 76.500 C 366.865 76.500,366.992 76.604,367.030 76.875 C 367.083 77.250,367.088 77.250,370.792 77.294 L 374.500 77.338 374.500 76.919 C 374.500 76.527,374.554 76.500,375.333 76.500 C 376.111 76.500,376.167 76.472,376.167 76.083 C 376.167 75.750,376.250 75.667,376.583 75.667 C 376.917 75.667,377.000 75.583,377.000 75.250 C 377.000 74.919,377.084 74.833,377.409 74.833 L 377.819 74.833 377.823 72.333 L 377.828 69.833 377.414 69.833 C 377.084 69.833,377.000 69.749,377.000 69.417 C 377.000 69.028,376.944 69.000,376.167 69.000 C 375.389 69.000,375.333 68.972,375.333 68.583 C 375.333 68.250,375.250 68.167,374.917 68.167 C 374.553 68.167,374.500 68.094,374.500 67.597 C 374.500 66.812,374.353 66.500,373.982 66.500 C 373.701 66.500,373.667 66.365,373.667 65.250 C 373.667 64.028,373.657 64.000,373.250 64.000 L 372.833 64.000 372.833 58.500 L 372.833 53.000 373.250 53.000 L 373.667 53.000 373.667 50.083 L 373.667 47.167 374.083 47.167 L 374.500 47.167 374.500 45.095 C 374.500 43.073,374.509 43.022,374.875 42.970 C 375.249 42.917,375.250 42.910,375.250 39.667 C 375.250 36.423,375.249 36.417,374.875 36.363 C 374.604 36.325,374.500 36.198,374.500 35.905 C 374.500 35.587,374.413 35.500,374.095 35.500 C 373.802 35.500,373.675 35.396,373.637 35.125 C 373.586 34.769,373.500 34.748,371.967 34.702 L 370.351 34.655 370.301 33.869 C 370.258 33.206,370.193 33.075,369.884 33.031 C 369.575 32.987,369.510 32.857,369.467 32.198 C 369.425 31.540,369.359 31.408,369.052 31.365 C 368.825 31.332,368.668 31.175,368.635 30.948 C 368.592 30.641,368.460 30.575,367.802 30.533 C 367.143 30.490,367.013 30.425,366.969 30.116 C 366.916 29.748,358.300 29.422,357.947 29.775 M142.667 30.914 C 142.667 31.325,142.641 31.333,141.417 31.333 C 140.194 31.333,140.167 31.343,140.167 31.750 C 140.167 32.139,140.111 32.167,139.333 32.167 C 138.556 32.167,138.500 32.194,138.500 32.583 C 138.500 32.972,138.444 33.000,137.667 33.000 C 136.889 33.000,136.833 33.028,136.833 33.417 C 136.833 33.787,136.763 33.834,136.208 33.836 C 135.452 33.839,135.084 34.044,135.217 34.390 C 135.288 34.576,135.191 34.661,134.866 34.698 C 134.547 34.735,134.401 34.859,134.363 35.125 C 134.325 35.396,134.198 35.500,133.905 35.500 C 133.584 35.500,133.500 35.587,133.500 35.917 C 133.500 36.250,133.417 36.333,133.083 36.333 C 132.732 36.333,132.667 36.411,132.667 36.831 C 132.667 37.248,132.606 37.323,132.292 37.290 C 132.019 37.261,131.904 37.348,131.865 37.615 C 131.833 37.842,131.675 37.999,131.448 38.031 C 131.142 38.075,131.070 38.218,131.000 38.917 C 130.930 39.612,130.862 39.750,130.583 39.748 C 130.361 39.746,130.220 39.885,130.160 40.164 C 130.094 40.476,129.977 40.573,129.702 40.544 C 129.410 40.512,129.333 40.590,129.333 40.915 C 129.333 41.215,129.220 41.355,128.917 41.432 C 128.543 41.525,128.500 41.621,128.500 42.349 C 128.500 43.094,128.468 43.159,128.125 43.123 C 127.790 43.088,127.741 43.173,127.667 43.917 C 127.593 44.653,127.541 44.746,127.219 44.712 C 126.935 44.683,126.843 44.774,126.802 45.129 C 126.765 45.453,126.643 45.599,126.375 45.637 C 126.025 45.686,126.000 45.771,126.000 46.926 C 126.000 48.109,125.984 48.161,125.625 48.123 C 125.289 48.087,125.245 48.166,125.199 48.874 C 125.156 49.554,125.091 49.679,124.741 49.767 C 124.355 49.864,124.333 49.934,124.333 51.101 C 124.333 52.304,124.324 52.333,123.917 52.333 L 123.500 52.333 123.500 54.000 L 123.500 55.667 123.081 55.667 L 122.662 55.667 122.706 61.042 L 122.750 66.417 123.125 66.470 C 123.475 66.520,123.500 66.604,123.500 67.762 C 123.500 68.971,123.510 69.000,123.917 69.000 C 124.306 69.000,124.333 69.056,124.333 69.833 C 124.333 70.611,124.361 70.667,124.750 70.667 C 125.132 70.667,125.167 70.728,125.167 71.413 C 125.167 72.071,125.216 72.173,125.583 72.265 C 125.882 72.340,126.000 72.482,126.000 72.768 C 126.000 73.082,126.088 73.167,126.417 73.167 C 126.750 73.167,126.833 73.250,126.833 73.583 C 126.833 73.917,126.917 74.000,127.250 74.000 C 127.583 74.000,127.667 74.083,127.667 74.417 C 127.667 74.750,127.750 74.833,128.083 74.833 C 128.381 74.833,128.500 74.923,128.500 75.149 C 128.500 75.520,128.812 75.667,129.597 75.667 C 130.094 75.667,130.167 75.720,130.167 76.083 C 130.167 76.472,130.222 76.500,131.000 76.500 C 131.707 76.500,131.833 76.548,131.833 76.816 C 131.833 77.312,132.063 77.333,137.514 77.333 L 142.667 77.333 142.667 76.917 C 142.667 76.509,142.694 76.500,143.917 76.500 C 145.139 76.500,145.167 76.491,145.167 76.083 C 145.167 75.694,145.222 75.667,146.000 75.667 C 146.778 75.667,146.833 75.639,146.833 75.250 C 146.833 74.861,146.889 74.833,147.667 74.833 C 148.439 74.833,148.500 74.804,148.500 74.426 C 148.500 74.058,148.577 74.013,149.292 73.967 C 149.967 73.924,150.091 73.862,150.137 73.542 C 150.175 73.270,150.302 73.167,150.595 73.167 C 150.916 73.167,151.000 73.080,151.000 72.750 C 151.000 72.417,151.083 72.333,151.417 72.333 C 151.750 72.333,151.833 72.250,151.833 71.917 C 151.833 71.553,151.906 71.500,152.403 71.500 C 153.188 71.500,153.500 71.353,153.500 70.982 C 153.500 70.757,153.619 70.667,153.917 70.667 C 154.250 70.667,154.333 70.583,154.333 70.250 C 154.333 69.917,154.417 69.833,154.750 69.833 C 155.080 69.833,155.167 69.749,155.167 69.428 C 155.167 69.135,155.270 69.008,155.542 68.970 C 155.779 68.936,155.936 68.783,155.969 68.552 C 156.001 68.325,156.158 68.168,156.385 68.135 C 156.612 68.103,156.770 67.946,156.802 67.719 C 156.834 67.491,156.991 67.334,157.219 67.302 C 157.527 67.258,157.591 67.127,157.634 66.458 C 157.680 65.744,157.725 65.667,158.092 65.667 C 158.416 65.667,158.500 65.581,158.500 65.250 C 158.500 64.920,158.584 64.833,158.906 64.833 C 159.224 64.833,159.323 64.735,159.364 64.375 C 159.401 64.054,159.524 63.901,159.775 63.866 C 160.161 63.811,160.435 62.959,160.235 62.437 C 160.159 62.241,160.200 62.190,160.377 62.258 C 160.754 62.402,161.167 61.875,161.167 61.250 C 161.167 60.796,161.238 60.680,161.542 60.637 C 161.859 60.591,161.923 60.469,161.959 59.833 C 161.982 59.421,162.077 59.058,162.170 59.027 C 162.653 58.866,162.833 58.432,162.833 57.433 C 162.833 56.459,162.858 56.391,163.208 56.403 C 163.571 56.416,163.585 56.359,163.631 54.719 C 163.676 53.110,163.697 53.019,164.047 52.969 L 164.417 52.917 164.417 48.500 L 164.417 44.083 164.042 43.919 C 163.716 43.776,163.664 43.622,163.647 42.752 C 163.637 42.201,163.611 41.675,163.589 41.583 C 163.568 41.492,163.539 41.253,163.525 41.053 C 163.511 40.853,163.354 40.643,163.175 40.586 C 162.925 40.507,162.839 40.303,162.800 39.700 C 162.755 39.000,162.710 38.921,162.375 38.956 C 161.997 38.996,161.939 38.885,161.992 38.217 C 162.030 37.742,161.718 37.167,161.422 37.167 C 161.294 37.167,161.166 36.998,161.137 36.792 C 161.103 36.554,160.949 36.398,160.719 36.365 C 160.491 36.332,160.334 36.175,160.302 35.948 C 160.265 35.690,160.115 35.568,159.792 35.531 C 159.432 35.489,159.333 35.391,159.333 35.072 C 159.333 34.751,159.247 34.667,158.917 34.667 C 158.583 34.667,158.500 34.583,158.500 34.250 C 158.500 33.917,158.417 33.833,158.083 33.833 C 157.750 33.833,157.667 33.750,157.667 33.417 C 157.667 33.083,157.583 33.000,157.250 33.000 C 156.917 33.000,156.833 32.917,156.833 32.583 C 156.833 32.194,156.778 32.167,156.000 32.167 C 155.222 32.167,155.167 32.139,155.167 31.750 C 155.167 31.362,155.110 31.333,154.345 31.333 C 153.620 31.333,153.517 31.289,153.470 30.958 L 153.417 30.583 148.042 30.539 L 142.667 30.495 142.667 30.914 M228.925 30.917 C 228.970 31.330,228.960 31.333,227.652 31.333 C 226.357 31.333,226.333 31.341,226.333 31.750 C 226.333 32.140,226.279 32.167,225.481 32.167 C 224.646 32.167,224.630 32.176,224.696 32.625 C 224.764 33.081,224.761 33.083,223.882 33.026 C 223.034 32.971,223.000 32.985,223.000 33.392 C 223.000 33.770,222.925 33.820,222.292 33.865 C 221.749 33.905,221.546 34.003,221.422 34.285 C 221.333 34.487,221.108 34.675,220.922 34.702 C 220.720 34.730,220.562 34.898,220.531 35.115 C 220.499 35.342,220.342 35.499,220.115 35.531 C 219.888 35.564,219.730 35.721,219.698 35.948 C 219.666 36.175,219.509 36.332,219.281 36.365 C 219.025 36.401,218.901 36.551,218.864 36.871 C 218.823 37.226,218.732 37.317,218.448 37.288 C 218.186 37.261,218.070 37.352,218.032 37.615 C 217.999 37.842,217.842 37.999,217.615 38.031 C 217.309 38.075,217.237 38.218,217.167 38.917 C 217.097 39.612,217.028 39.750,216.750 39.748 C 216.528 39.746,216.387 39.885,216.327 40.164 C 216.261 40.476,216.143 40.573,215.870 40.544 C 215.667 40.522,215.510 40.559,215.520 40.627 C 215.590 41.075,215.445 41.341,215.083 41.432 C 214.710 41.525,214.667 41.621,214.667 42.349 C 214.667 43.094,214.635 43.159,214.292 43.123 C 213.957 43.088,213.908 43.173,213.833 43.917 C 213.759 44.661,213.710 44.746,213.375 44.710 C 213.061 44.677,213.000 44.751,213.000 45.169 C 213.000 45.589,212.935 45.667,212.583 45.667 C 212.177 45.667,212.167 45.696,212.167 46.888 C 212.167 48.048,212.148 48.109,211.792 48.097 C 211.460 48.085,211.411 48.175,211.366 48.874 C 211.322 49.560,211.260 49.679,210.897 49.770 C 210.495 49.871,210.480 49.919,210.518 51.062 C 210.557 52.237,210.553 52.251,210.112 52.303 L 209.667 52.355 209.667 54.011 L 209.667 55.667 209.248 55.667 L 208.829 55.667 208.873 61.042 L 208.917 66.417 209.292 66.470 C 209.642 66.520,209.667 66.604,209.667 67.762 C 209.667 68.971,209.676 69.000,210.083 69.000 C 210.472 69.000,210.500 69.056,210.500 69.833 C 210.500 70.611,210.528 70.667,210.917 70.667 C 211.299 70.667,211.333 70.728,211.333 71.413 C 211.333 72.071,211.383 72.173,211.750 72.265 C 212.049 72.340,212.167 72.482,212.167 72.768 C 212.167 73.082,212.255 73.167,212.583 73.167 C 212.917 73.167,213.000 73.250,213.000 73.583 C 213.000 73.917,213.083 74.000,213.417 74.000 C 213.750 74.000,213.833 74.083,213.833 74.417 C 213.833 74.750,213.917 74.833,214.250 74.833 C 214.548 74.833,214.667 74.923,214.667 75.149 C 214.667 75.520,214.978 75.667,215.764 75.667 C 216.260 75.667,216.333 75.720,216.333 76.083 C 216.333 76.472,216.389 76.500,217.167 76.500 C 217.873 76.500,218.000 76.548,218.000 76.816 C 218.000 77.312,218.230 77.333,223.680 77.333 L 228.833 77.333 228.833 76.917 C 228.833 76.509,228.861 76.500,230.083 76.500 C 231.306 76.500,231.333 76.491,231.333 76.083 C 231.333 75.694,231.389 75.667,232.167 75.667 C 232.944 75.667,233.000 75.639,233.000 75.250 C 233.000 74.861,233.056 74.833,233.833 74.833 C 234.606 74.833,234.667 74.804,234.667 74.426 C 234.667 74.058,234.744 74.013,235.458 73.967 C 236.134 73.924,236.258 73.862,236.303 73.542 C 236.342 73.270,236.468 73.167,236.762 73.167 C 237.083 73.167,237.167 73.080,237.167 72.750 C 237.167 72.417,237.250 72.333,237.583 72.333 C 237.917 72.333,238.000 72.250,238.000 71.917 C 238.000 71.553,238.073 71.500,238.570 71.500 C 239.355 71.500,239.667 71.353,239.667 70.982 C 239.667 70.757,239.786 70.667,240.080 70.667 C 240.382 70.667,240.522 70.554,240.598 70.250 C 240.663 69.991,240.821 69.833,241.015 69.833 C 241.209 69.833,241.367 69.676,241.432 69.417 C 241.497 69.158,241.654 69.000,241.848 69.000 C 242.042 69.000,242.200 68.842,242.265 68.583 C 242.330 68.324,242.488 68.167,242.682 68.167 C 242.868 68.167,243.032 68.013,243.089 67.786 C 243.142 67.576,243.350 67.332,243.551 67.244 C 243.829 67.122,243.929 66.916,243.967 66.385 C 244.009 65.813,244.084 65.678,244.384 65.635 C 244.612 65.603,244.770 65.446,244.802 65.219 C 244.834 64.991,244.991 64.834,245.219 64.802 C 245.419 64.773,245.593 64.637,245.606 64.500 C 245.618 64.362,245.637 64.156,245.647 64.042 C 245.658 63.927,245.812 63.833,245.990 63.833 C 246.244 63.833,246.336 63.677,246.422 63.103 C 246.505 62.552,246.631 62.327,246.933 62.190 C 247.266 62.038,247.333 61.886,247.333 61.282 C 247.333 60.637,247.375 60.558,247.708 60.570 C 248.037 60.582,248.089 60.490,248.133 59.828 C 248.171 59.236,248.261 59.038,248.549 58.911 C 248.864 58.773,248.929 58.584,249.000 57.583 C 249.073 56.556,249.123 56.417,249.417 56.417 C 249.725 56.417,249.754 56.290,249.797 54.708 C 249.845 53.017,249.849 53.000,250.256 53.000 L 250.667 53.000 250.667 48.503 L 250.667 44.006 250.250 43.902 C 249.847 43.801,249.833 43.751,249.833 42.411 C 249.833 41.066,249.635 40.500,249.164 40.500 C 249.084 40.500,248.995 40.144,248.967 39.708 C 248.922 38.999,248.877 38.921,248.542 38.956 C 248.210 38.991,248.167 38.921,248.167 38.345 C 248.167 37.485,248.030 37.167,247.660 37.167 C 247.472 37.167,247.336 37.024,247.303 36.792 C 247.270 36.554,247.116 36.398,246.885 36.365 C 246.658 36.332,246.501 36.175,246.469 35.948 C 246.436 35.721,246.279 35.564,246.052 35.531 C 245.825 35.499,245.668 35.342,245.635 35.115 C 245.603 34.888,245.446 34.730,245.219 34.698 C 244.991 34.666,244.834 34.509,244.802 34.281 C 244.769 34.051,244.612 33.897,244.375 33.863 C 244.169 33.834,243.991 33.740,243.979 33.655 C 243.968 33.570,243.949 33.406,243.938 33.292 C 243.926 33.177,243.753 33.060,243.552 33.031 C 243.325 32.999,243.168 32.842,243.135 32.615 C 243.092 32.308,242.960 32.242,242.302 32.200 C 241.643 32.157,241.513 32.092,241.469 31.783 C 241.424 31.467,241.297 31.410,240.542 31.366 C 239.738 31.320,239.667 31.283,239.667 30.908 L 239.667 30.500 234.273 30.500 L 228.879 30.500 228.925 30.917 M317.770 32.285 C 317.713 32.342,317.667 32.526,317.667 32.694 C 317.667 32.909,317.543 33.000,317.250 33.000 C 316.825 33.000,316.737 33.244,316.791 34.282 C 316.806 34.560,316.703 34.659,316.363 34.698 C 315.948 34.746,315.920 34.801,315.962 35.460 C 316.001 36.079,315.952 36.196,315.587 36.362 C 315.340 36.475,315.163 36.697,315.157 36.902 C 315.151 37.093,315.133 38.567,315.115 40.176 C 315.086 42.898,315.062 43.104,314.773 43.125 C 314.271 43.163,314.254 43.248,314.265 45.728 C 314.274 47.978,314.258 48.101,313.944 48.125 C 313.424 48.164,313.365 48.422,313.414 50.440 C 313.459 52.310,313.455 52.333,313.082 52.333 C 312.579 52.333,312.492 52.870,312.587 55.375 L 312.662 57.333 312.267 57.333 C 311.715 57.333,311.693 57.513,311.778 61.394 L 311.852 64.809 311.386 64.863 L 310.920 64.917 310.917 68.750 C 310.913 72.759,310.968 73.167,311.509 73.167 C 311.812 73.167,311.835 73.266,311.795 74.372 C 311.754 75.463,311.782 75.583,312.083 75.641 C 312.476 75.717,312.694 75.999,312.586 76.293 C 312.373 76.876,312.808 77.333,313.577 77.333 C 314.258 77.333,314.326 77.369,314.290 77.708 L 314.250 78.083 317.500 78.083 C 320.717 78.083,320.751 78.080,320.802 77.718 C 320.838 77.463,320.988 77.338,321.302 77.302 C 321.622 77.265,321.750 77.155,321.750 76.917 C 321.750 76.695,321.889 76.555,322.167 76.499 C 322.438 76.444,322.602 76.284,322.637 76.041 C 322.670 75.809,322.806 75.667,322.994 75.667 C 323.461 75.667,323.510 75.331,323.491 72.288 C 323.472 69.186,323.444 69.000,322.982 69.000 C 322.680 69.000,322.667 68.801,322.667 64.333 C 322.667 59.849,322.679 59.667,322.985 59.667 C 323.324 59.667,323.560 58.842,323.496 57.883 C 323.329 55.376,323.511 53.022,323.875 52.970 C 324.231 52.919,324.252 52.833,324.298 51.292 C 324.340 49.843,324.379 49.667,324.652 49.667 C 325.027 49.667,325.167 49.077,325.167 47.491 C 325.167 46.441,325.195 46.353,325.542 46.303 C 325.886 46.254,325.921 46.150,325.966 45.042 C 326.008 43.999,326.057 43.833,326.320 43.833 C 326.694 43.833,326.833 43.242,326.833 41.646 C 326.833 40.623,326.868 40.500,327.156 40.500 C 327.841 40.500,327.902 34.795,327.219 34.698 C 326.991 34.666,326.834 34.509,326.802 34.281 C 326.770 34.054,326.612 33.897,326.385 33.865 C 326.158 33.832,326.001 33.675,325.969 33.448 C 325.936 33.221,325.779 33.064,325.552 33.031 C 325.325 32.999,325.168 32.842,325.135 32.615 C 325.084 32.254,318.113 31.943,317.770 32.285 M291.667 39.250 C 291.667 39.581,291.751 39.667,292.074 39.667 C 292.442 39.667,292.487 39.744,292.533 40.458 C 292.576 41.134,292.638 41.258,292.958 41.303 C 293.329 41.356,293.333 41.388,293.333 43.928 L 293.333 46.500 292.917 46.500 C 292.502 46.500,292.500 46.507,292.500 48.065 C 292.500 49.596,292.491 49.633,292.083 49.735 C 291.709 49.829,291.667 49.923,291.667 50.670 C 291.667 51.444,291.639 51.500,291.250 51.500 C 290.861 51.500,290.833 51.556,290.833 52.333 C 290.833 53.111,290.806 53.167,290.417 53.167 C 290.028 53.167,290.000 53.222,290.000 54.000 C 290.000 54.778,289.972 54.833,289.583 54.833 C 289.250 54.833,289.167 54.917,289.167 55.250 C 289.167 55.583,289.083 55.667,288.750 55.667 C 288.361 55.667,288.333 55.722,288.333 56.500 C 288.333 57.278,288.306 57.333,287.917 57.333 C 287.583 57.333,287.500 57.417,287.500 57.750 C 287.500 58.083,287.417 58.167,287.083 58.167 C 286.750 58.167,286.667 58.250,286.667 58.583 C 286.667 58.917,286.583 59.000,286.250 59.000 C 285.861 59.000,285.833 59.056,285.833 59.833 C 285.833 60.611,285.806 60.667,285.417 60.667 C 285.083 60.667,285.000 60.750,285.000 61.083 C 285.000 61.417,284.917 61.500,284.583 61.500 C 284.250 61.500,284.167 61.583,284.167 61.917 C 284.167 62.255,284.085 62.333,283.731 62.333 C 283.355 62.333,283.306 62.391,283.374 62.750 C 283.444 63.116,283.396 63.167,282.977 63.167 C 282.579 63.167,282.500 63.236,282.500 63.583 C 282.500 63.972,282.444 64.000,281.667 64.000 C 280.889 64.000,280.833 64.028,280.833 64.417 C 280.833 64.750,280.750 64.833,280.417 64.833 C 280.083 64.833,280.000 64.917,280.000 65.250 C 280.000 65.639,279.944 65.667,279.167 65.667 C 278.394 65.667,278.333 65.696,278.333 66.075 C 278.333 66.449,278.262 66.487,277.458 66.533 C 276.696 66.577,276.576 66.632,276.530 66.958 C 276.444 67.563,274.833 67.524,274.833 66.917 C 274.833 66.528,274.778 66.500,274.000 66.500 C 273.222 66.500,273.167 66.472,273.167 66.083 C 273.167 65.750,273.083 65.667,272.750 65.667 C 272.417 65.667,272.333 65.583,272.333 65.250 C 272.333 64.922,272.249 64.833,271.936 64.833 C 271.515 64.833,271.274 63.987,271.413 63.000 C 271.446 62.771,271.478 62.345,271.486 62.053 C 271.497 61.636,271.580 61.512,271.875 61.470 C 272.193 61.425,272.263 61.290,272.333 60.583 C 272.404 59.876,272.474 59.742,272.792 59.697 C 273.141 59.647,273.167 59.562,273.167 58.428 C 273.167 57.232,273.173 57.214,273.571 57.290 C 273.913 57.356,273.983 57.295,274.029 56.892 C 274.068 56.547,274.186 56.402,274.458 56.363 C 274.782 56.317,274.833 56.210,274.833 55.583 C 274.833 54.956,274.885 54.849,275.208 54.803 C 275.477 54.765,275.598 54.620,275.636 54.292 C 275.677 53.932,275.776 53.833,276.094 53.833 C 276.474 53.833,276.500 53.775,276.500 52.940 C 276.500 52.077,276.514 52.049,276.917 52.126 C 277.275 52.194,277.333 52.145,277.333 51.769 C 277.333 51.415,277.412 51.333,277.750 51.333 C 278.139 51.333,278.167 51.278,278.167 50.500 C 278.167 49.722,278.194 49.667,278.583 49.667 C 278.917 49.667,279.000 49.583,279.000 49.250 C 279.000 48.917,279.083 48.833,279.417 48.833 C 279.747 48.833,279.833 48.749,279.833 48.428 C 279.833 48.109,279.932 48.011,280.292 47.969 C 280.620 47.932,280.765 47.810,280.803 47.542 C 280.837 47.302,280.972 47.167,281.175 47.167 C 281.376 47.167,281.532 47.013,281.598 46.750 C 281.663 46.493,281.821 46.333,282.012 46.333 C 282.258 46.333,282.345 46.161,282.432 45.500 C 282.530 44.765,282.590 44.667,282.938 44.667 C 283.249 44.667,283.333 44.577,283.333 44.250 C 283.333 43.917,283.417 43.833,283.750 43.833 C 284.083 43.833,284.167 43.750,284.167 43.417 C 284.167 43.035,284.229 43.000,284.905 43.000 C 285.544 43.000,285.651 42.949,285.697 42.625 C 285.731 42.384,285.884 42.231,286.125 42.197 C 286.356 42.164,286.538 41.992,286.599 41.748 C 286.658 41.511,286.842 41.332,287.057 41.301 C 287.280 41.270,287.437 41.110,287.469 40.884 C 287.513 40.575,287.643 40.510,288.302 40.467 C 288.967 40.424,289.091 40.361,289.137 40.042 C 289.184 39.711,289.286 39.667,290.012 39.667 C 290.777 39.667,290.833 39.638,290.833 39.250 C 290.833 38.917,290.917 38.833,291.250 38.833 C 291.583 38.833,291.667 38.917,291.667 39.250 M362.000 39.250 C 362.000 39.583,362.083 39.667,362.417 39.667 C 362.750 39.667,362.833 39.750,362.833 40.083 C 362.833 40.417,362.917 40.500,363.250 40.500 L 363.667 40.500 363.667 43.405 C 363.667 46.291,363.664 46.311,363.292 46.363 C 362.950 46.412,362.909 46.527,362.833 47.667 C 362.759 48.778,362.713 48.917,362.417 48.917 C 362.138 48.917,362.075 49.044,362.033 49.692 C 361.990 50.357,361.925 50.483,361.575 50.571 C 361.220 50.660,361.167 50.767,361.167 51.402 C 361.167 52.040,361.115 52.144,360.750 52.235 C 360.446 52.312,360.333 52.451,360.333 52.753 C 360.333 53.083,360.249 53.167,359.917 53.167 C 359.574 53.167,359.500 53.248,359.498 53.625 C 359.494 54.407,359.312 54.833,358.984 54.833 C 358.791 54.833,358.633 54.992,358.568 55.250 C 358.505 55.504,358.345 55.667,358.160 55.667 C 357.972 55.667,357.836 55.809,357.803 56.042 C 357.769 56.283,357.616 56.436,357.375 56.470 C 356.999 56.523,356.901 56.849,356.979 57.780 C 357.002 58.063,356.906 58.155,356.546 58.197 C 356.183 58.239,356.091 58.328,356.121 58.614 C 356.151 58.899,356.059 58.990,355.704 59.031 C 355.350 59.072,355.258 59.163,355.288 59.448 C 355.317 59.732,355.226 59.823,354.871 59.864 C 354.516 59.905,354.425 59.997,354.454 60.281 C 354.484 60.565,354.393 60.657,354.038 60.698 C 353.712 60.735,353.583 60.844,353.583 61.083 C 353.583 61.304,353.442 61.447,353.167 61.506 C 352.862 61.572,352.760 61.692,352.788 61.954 C 352.817 62.232,352.724 62.324,352.371 62.364 C 352.012 62.406,351.925 62.495,351.956 62.792 C 351.990 63.107,351.916 63.167,351.488 63.167 C 351.209 63.167,351.022 63.235,351.074 63.318 C 351.250 63.602,350.965 64.000,350.587 64.000 C 350.301 64.000,350.215 64.091,350.230 64.375 C 350.248 64.706,350.153 64.760,349.417 64.833 C 348.919 64.883,348.577 65.001,348.567 65.125 C 348.558 65.240,348.539 65.408,348.525 65.500 C 348.511 65.593,347.983 65.667,347.333 65.667 C 346.518 65.667,346.163 65.729,346.154 65.875 C 346.143 66.042,346.124 66.042,346.056 65.875 C 346.010 65.760,345.791 65.667,345.569 65.667 L 345.167 65.667 345.167 62.762 C 345.167 59.876,345.169 59.856,345.542 59.803 C 345.884 59.755,345.924 59.640,346.000 58.500 C 346.074 57.389,346.120 57.250,346.417 57.250 C 346.695 57.250,346.758 57.122,346.800 56.474 C 346.843 55.810,346.909 55.684,347.258 55.596 C 347.623 55.505,347.667 55.405,347.667 54.663 C 347.667 53.889,347.695 53.833,348.083 53.833 C 348.472 53.833,348.500 53.778,348.500 53.000 C 348.500 52.222,348.528 52.167,348.917 52.167 C 349.247 52.167,349.333 52.083,349.333 51.762 C 349.333 51.468,349.437 51.342,349.708 51.303 C 350.028 51.258,350.091 51.134,350.134 50.458 C 350.180 49.744,350.225 49.667,350.592 49.667 C 350.913 49.667,351.000 49.580,351.000 49.262 C 351.000 48.968,351.104 48.842,351.375 48.803 C 351.695 48.758,351.757 48.634,351.801 47.958 C 351.847 47.244,351.891 47.167,352.259 47.167 C 352.583 47.167,352.667 47.081,352.667 46.750 C 352.667 46.417,352.750 46.333,353.083 46.333 C 353.413 46.333,353.500 46.249,353.500 45.928 C 353.500 45.635,353.604 45.508,353.875 45.470 C 354.200 45.424,354.257 45.303,354.300 44.566 C 354.346 43.763,354.372 43.720,354.758 43.794 C 355.108 43.861,355.167 43.809,355.167 43.436 C 355.167 43.082,355.245 43.000,355.583 43.000 C 355.917 43.000,356.000 42.917,356.000 42.583 C 356.000 42.250,356.083 42.167,356.417 42.167 C 356.750 42.167,356.833 42.083,356.833 41.750 C 356.833 41.417,356.917 41.333,357.250 41.333 C 357.583 41.333,357.667 41.250,357.667 40.917 C 357.667 40.528,357.722 40.500,358.500 40.500 C 359.273 40.500,359.333 40.470,359.333 40.092 C 359.333 39.717,359.405 39.680,360.208 39.634 C 360.971 39.590,361.090 39.535,361.137 39.208 C 361.217 38.639,362.000 38.677,362.000 39.250 M147.763 40.042 C 147.752 40.372,147.842 40.423,148.531 40.467 C 149.190 40.510,149.321 40.575,149.365 40.884 C 149.398 41.116,149.554 41.269,149.791 41.303 C 150.025 41.336,150.204 41.509,150.268 41.762 C 150.337 42.038,150.487 42.167,150.740 42.167 C 151.016 42.167,151.106 42.261,151.097 42.542 C 151.087 42.820,151.190 42.931,151.500 42.972 C 151.729 43.003,151.992 43.108,152.083 43.205 C 152.195 43.324,152.192 43.350,152.073 43.284 C 151.960 43.221,151.900 43.439,151.906 43.885 C 151.916 44.509,151.963 44.589,152.347 44.633 L 152.777 44.683 152.784 49.342 L 152.791 54.000 152.334 54.000 C 151.891 54.000,151.878 54.026,151.917 54.833 C 151.954 55.610,151.930 55.667,151.562 55.667 C 151.307 55.667,151.157 55.771,151.138 55.958 C 151.122 56.119,151.096 56.400,151.078 56.583 C 151.061 56.767,151.037 57.010,151.024 57.125 C 151.011 57.240,150.858 57.333,150.685 57.333 C 150.350 57.333,150.174 57.779,150.224 58.500 C 150.246 58.822,150.157 58.936,149.835 59.003 C 149.451 59.082,149.420 59.155,149.461 59.878 C 149.504 60.644,149.491 60.667,149.030 60.667 C 148.719 60.667,148.556 60.753,148.556 60.917 C 148.556 61.054,148.622 61.167,148.704 61.167 C 148.786 61.167,148.807 61.242,148.750 61.333 C 148.693 61.425,148.431 61.500,148.168 61.500 C 147.748 61.500,147.698 61.551,147.764 61.917 C 147.831 62.286,147.782 62.333,147.337 62.333 C 146.911 62.333,146.833 62.398,146.833 62.750 C 146.833 63.083,146.750 63.167,146.417 63.167 C 146.083 63.167,146.000 63.250,146.000 63.583 C 146.000 63.917,145.917 64.000,145.583 64.000 C 145.250 64.000,145.167 64.083,145.167 64.417 C 145.167 64.750,145.083 64.833,144.750 64.833 C 144.417 64.833,144.333 64.917,144.333 65.250 C 144.333 65.639,144.278 65.667,143.500 65.667 C 142.727 65.667,142.667 65.696,142.667 66.074 C 142.667 66.442,142.590 66.487,141.875 66.533 C 141.199 66.576,141.076 66.638,141.030 66.958 C 140.983 67.289,140.880 67.333,140.155 67.333 C 139.390 67.333,139.333 67.362,139.333 67.750 C 139.333 68.139,139.278 68.167,138.500 68.167 C 137.722 68.167,137.667 68.139,137.667 67.750 C 137.667 67.361,137.611 67.333,136.833 67.333 C 136.046 67.333,136.000 67.309,136.000 66.897 C 136.000 66.522,135.942 66.472,135.583 66.541 C 135.175 66.619,135.167 66.600,135.167 65.574 C 135.167 64.312,135.064 64.000,134.649 64.000 C 134.348 64.000,134.333 63.817,134.333 60.178 L 134.333 56.357 134.708 56.303 C 135.064 56.253,135.086 56.167,135.131 54.625 C 135.178 53.022,135.184 53.000,135.589 53.000 C 135.970 53.000,136.000 52.940,136.000 52.178 C 136.000 51.453,136.044 51.350,136.375 51.303 C 136.694 51.258,136.758 51.134,136.800 50.469 C 136.843 49.810,136.908 49.679,137.217 49.635 C 137.526 49.591,137.591 49.461,137.634 48.802 C 137.676 48.143,137.741 48.013,138.050 47.969 C 138.360 47.925,138.425 47.795,138.467 47.125 C 138.514 46.403,138.555 46.333,138.938 46.333 C 139.335 46.333,139.356 46.290,139.309 45.542 C 139.262 44.790,139.282 44.747,139.713 44.697 C 140.068 44.656,140.167 44.556,140.167 44.239 C 140.167 43.917,140.253 43.833,140.583 43.833 C 140.917 43.833,141.000 43.750,141.000 43.417 C 141.000 43.083,141.083 43.000,141.417 43.000 C 141.750 43.000,141.833 42.917,141.833 42.583 C 141.833 42.250,141.917 42.167,142.250 42.167 C 142.583 42.167,142.667 42.083,142.667 41.750 C 142.667 41.417,142.750 41.333,143.083 41.333 C 143.417 41.333,143.500 41.250,143.500 40.917 C 143.500 40.509,143.528 40.500,144.750 40.500 C 145.972 40.500,146.000 40.491,146.000 40.083 C 146.000 39.691,146.052 39.667,146.888 39.667 C 147.702 39.667,147.775 39.698,147.763 40.042 M233.902 40.083 C 233.994 40.450,234.096 40.500,234.750 40.500 C 235.404 40.500,235.506 40.550,235.598 40.917 C 235.673 41.216,235.815 41.333,236.101 41.333 C 236.415 41.333,236.500 41.422,236.500 41.750 C 236.500 42.054,236.589 42.167,236.830 42.167 C 237.043 42.167,237.197 42.314,237.265 42.583 C 237.328 42.834,237.488 43.000,237.669 43.000 C 237.902 43.000,237.994 43.185,238.083 43.833 C 238.172 44.475,238.266 44.667,238.492 44.667 C 238.852 44.667,238.997 45.889,238.999 48.933 C 239.001 52.332,238.835 54.000,238.494 54.000 C 238.189 54.000,238.006 54.449,238.002 55.208 C 238.001 55.544,237.917 55.667,237.688 55.667 C 237.369 55.667,237.038 56.824,237.256 57.177 C 237.309 57.263,237.161 57.333,236.927 57.333 C 236.489 57.333,236.402 57.573,236.459 58.625 C 236.475 58.914,236.389 59.000,236.084 59.000 C 235.631 59.000,235.392 59.504,235.638 59.943 C 235.834 60.293,235.511 60.667,235.012 60.667 C 234.641 60.667,234.550 60.908,234.851 61.094 C 235.098 61.247,234.706 61.494,234.210 61.497 C 233.923 61.499,233.846 61.587,233.877 61.875 C 233.908 62.172,233.822 62.261,233.458 62.303 C 233.063 62.348,233.013 62.412,233.101 62.761 C 233.192 63.125,233.150 63.167,232.687 63.167 C 232.253 63.167,232.177 63.226,232.210 63.535 C 232.240 63.810,232.143 63.927,231.833 63.994 C 231.604 64.043,231.409 64.177,231.400 64.292 C 231.361 64.778,231.314 64.833,230.938 64.833 C 230.634 64.833,230.548 64.919,230.563 65.208 C 230.581 65.540,230.486 65.593,229.750 65.667 C 229.006 65.741,228.921 65.790,228.956 66.125 C 228.993 66.469,228.927 66.500,228.168 66.500 C 227.423 66.500,227.329 66.542,227.235 66.917 C 227.141 67.290,227.046 67.333,226.315 67.333 C 225.557 67.333,225.500 67.362,225.500 67.750 C 225.500 68.139,225.444 68.167,224.667 68.167 C 223.889 68.167,223.833 68.139,223.833 67.750 C 223.833 67.361,223.778 67.333,223.000 67.333 C 222.222 67.333,222.167 67.306,222.167 66.917 C 222.167 66.585,222.083 66.500,221.757 66.500 C 221.365 66.500,221.346 66.450,221.299 65.292 C 221.254 64.183,221.219 64.079,220.875 64.030 L 220.500 63.977 220.500 60.167 L 220.500 56.357 220.875 56.303 C 221.231 56.253,221.252 56.167,221.298 54.625 C 221.345 53.022,221.351 53.000,221.756 53.000 C 222.137 53.000,222.167 52.940,222.167 52.178 C 222.167 51.453,222.211 51.350,222.542 51.303 C 222.861 51.258,222.924 51.134,222.967 50.469 C 223.010 49.810,223.075 49.679,223.384 49.635 C 223.693 49.591,223.758 49.461,223.800 48.802 C 223.843 48.143,223.908 48.013,224.217 47.969 C 224.527 47.925,224.591 47.795,224.634 47.125 C 224.680 46.410,224.725 46.333,225.092 46.333 C 225.470 46.333,225.500 46.273,225.500 45.500 C 225.500 44.722,225.528 44.667,225.917 44.667 C 226.250 44.667,226.333 44.583,226.333 44.250 C 226.333 43.917,226.417 43.833,226.750 43.833 C 227.083 43.833,227.167 43.750,227.167 43.417 C 227.167 43.083,227.250 43.000,227.583 43.000 C 227.917 43.000,228.000 42.917,228.000 42.583 C 228.000 42.250,228.083 42.167,228.417 42.167 C 228.750 42.167,228.833 42.083,228.833 41.750 C 228.833 41.417,228.917 41.333,229.250 41.333 C 229.583 41.333,229.667 41.250,229.667 40.917 C 229.667 40.509,229.694 40.500,230.917 40.500 C 232.139 40.500,232.167 40.491,232.167 40.083 C 232.167 39.696,232.223 39.667,232.982 39.667 C 233.713 39.667,233.808 39.710,233.902 40.083 M239.287 49.372 C 239.250 49.672,239.219 49.467,239.218 48.917 C 239.217 48.367,239.248 48.122,239.286 48.372 C 239.324 48.622,239.325 49.072,239.287 49.372 M322.453 63.625 C 322.415 63.877,322.383 63.671,322.383 63.167 C 322.383 62.663,322.415 62.456,322.453 62.708 C 322.491 62.960,322.491 63.373,322.453 63.625 " stroke="none" fill="#14fc44" fill-rule="evenodd"></path><path id="path1" d="M32.209 31.750 C 32.211 32.117,32.245 32.247,32.285 32.040 C 32.324 31.832,32.323 31.532,32.281 31.373 C 32.239 31.214,32.207 31.383,32.209 31.750 M32.212 34.500 C 32.212 34.912,32.245 35.081,32.284 34.875 C 32.324 34.669,32.324 34.331,32.284 34.125 C 32.245 33.919,32.212 34.087,32.212 34.500 M315.062 39.667 C 315.062 40.629,315.089 41.023,315.123 40.542 C 315.157 40.060,315.157 39.273,315.123 38.792 C 315.089 38.310,315.062 38.704,315.062 39.667 M31.375 40.417 C 31.377 40.783,31.411 40.914,31.451 40.706 C 31.491 40.499,31.490 40.199,31.448 40.040 C 31.406 39.880,31.374 40.050,31.375 40.417 M59.292 40.621 C 59.590 40.658,60.077 40.658,60.375 40.621 C 60.673 40.584,60.429 40.553,59.833 40.553 C 59.237 40.553,58.994 40.584,59.292 40.621 M63.201 40.623 C 63.816 40.655,64.866 40.656,65.534 40.624 C 66.203 40.592,65.700 40.566,64.417 40.566 C 63.133 40.565,62.586 40.591,63.201 40.623 M67.574 40.651 C 67.625 40.734,67.817 40.763,68.000 40.715 C 68.459 40.595,68.418 40.500,67.907 40.500 C 67.672 40.500,67.522 40.568,67.574 40.651 M54.958 41.451 C 55.165 41.491,55.502 41.491,55.708 41.451 C 55.915 41.411,55.746 41.379,55.333 41.379 C 54.921 41.379,54.752 41.411,54.958 41.451 M42.292 43.123 C 42.773 43.157,43.560 43.157,44.042 43.123 C 44.523 43.089,44.129 43.062,43.167 43.062 C 42.204 43.062,41.810 43.089,42.292 43.123 M30.539 44.000 C 30.539 44.321,30.573 44.452,30.615 44.292 C 30.657 44.131,30.657 43.869,30.615 43.708 C 30.573 43.548,30.539 43.679,30.539 44.000 M314.212 45.333 C 314.212 45.746,314.245 45.915,314.284 45.708 C 314.324 45.502,314.324 45.165,314.284 44.958 C 314.245 44.752,314.212 44.921,314.212 45.333 M30.539 46.000 C 30.539 46.321,30.573 46.452,30.615 46.292 C 30.657 46.131,30.657 45.869,30.615 45.708 C 30.573 45.548,30.539 45.679,30.539 46.000 M152.732 49.083 C 152.733 50.367,152.759 50.870,152.791 50.201 C 152.822 49.532,152.822 48.482,152.790 47.868 C 152.758 47.253,152.732 47.800,152.732 49.083 M314.205 47.667 C 314.205 47.987,314.240 48.119,314.282 47.958 C 314.323 47.798,314.323 47.535,314.282 47.375 C 314.240 47.215,314.205 47.346,314.205 47.667 M239.218 48.917 C 239.219 49.467,239.250 49.672,239.287 49.372 C 239.325 49.072,239.324 48.622,239.286 48.372 C 239.248 48.122,239.217 48.367,239.218 48.917 M313.372 49.833 C 313.372 50.154,313.406 50.285,313.448 50.125 C 313.490 49.965,313.490 49.702,313.448 49.542 C 313.406 49.381,313.372 49.512,313.372 49.833 M29.705 51.667 C 29.705 51.987,29.740 52.119,29.782 51.958 C 29.823 51.798,29.823 51.535,29.782 51.375 C 29.740 51.215,29.705 51.346,29.705 51.667 M152.705 53.167 C 152.705 53.487,152.740 53.619,152.782 53.458 C 152.823 53.298,152.823 53.035,152.782 52.875 C 152.740 52.715,152.705 52.846,152.705 53.167 M312.539 56.333 C 312.539 56.654,312.573 56.785,312.615 56.625 C 312.657 56.465,312.657 56.202,312.615 56.042 C 312.573 55.881,312.539 56.012,312.539 56.333 M28.875 56.750 C 28.877 57.117,28.911 57.247,28.951 57.040 C 28.991 56.832,28.990 56.532,28.948 56.373 C 28.906 56.214,28.874 56.383,28.875 56.750 M311.709 61.417 C 311.711 61.783,311.745 61.914,311.785 61.706 C 311.824 61.499,311.823 61.199,311.781 61.040 C 311.739 60.880,311.707 61.050,311.709 61.417 M322.383 63.167 C 322.383 63.671,322.415 63.877,322.453 63.625 C 322.491 63.373,322.491 62.960,322.453 62.708 C 322.415 62.456,322.383 62.663,322.383 63.167 M311.709 63.750 C 311.711 64.117,311.745 64.247,311.785 64.040 C 311.824 63.832,311.823 63.532,311.781 63.373 C 311.739 63.214,311.707 63.383,311.709 63.750 M310.900 69.000 C 310.900 70.329,310.925 70.873,310.957 70.208 C 310.989 69.544,310.989 68.456,310.957 67.792 C 310.925 67.127,310.900 67.671,310.900 69.000 " stroke="none" fill="#14fc4c" fill-rule="evenodd"></path><path id="path2" d="M31.372 23.000 C 31.372 23.321,31.406 23.452,31.448 23.292 C 31.490 23.131,31.490 22.869,31.448 22.708 C 31.406 22.548,31.372 22.679,31.372 23.000 M33.039 29.167 C 33.039 29.488,33.073 29.619,33.115 29.458 C 33.157 29.298,33.157 29.035,33.115 28.875 C 33.073 28.715,33.039 28.846,33.039 29.167 M32.205 35.667 C 32.205 35.987,32.240 36.119,32.282 35.958 C 32.323 35.798,32.323 35.535,32.282 35.375 C 32.240 35.215,32.205 35.346,32.205 35.667 M51.455 42.287 C 51.750 42.324,52.275 42.324,52.621 42.288 C 52.967 42.252,52.725 42.222,52.083 42.221 C 51.442 42.221,51.159 42.250,51.455 42.287 M311.705 62.667 C 311.705 62.987,311.740 63.119,311.782 62.958 C 311.823 62.798,311.823 62.535,311.782 62.375 C 311.740 62.215,311.705 62.346,311.705 62.667 " stroke="none" fill="#18fc44" fill-rule="evenodd"></path><path id="path3" d="M31.372 23.000 C 31.372 23.321,31.406 23.452,31.448 23.292 C 31.490 23.131,31.490 22.869,31.448 22.708 C 31.406 22.548,31.372 22.679,31.372 23.000 M33.039 29.167 C 33.039 29.488,33.073 29.619,33.115 29.458 C 33.157 29.298,33.157 29.035,33.115 28.875 C 33.073 28.715,33.039 28.846,33.039 29.167 M32.205 35.667 C 32.205 35.987,32.240 36.119,32.282 35.958 C 32.323 35.798,32.323 35.535,32.282 35.375 C 32.240 35.215,32.205 35.346,32.205 35.667 M51.455 42.287 C 51.750 42.324,52.275 42.324,52.621 42.288 C 52.967 42.252,52.725 42.222,52.083 42.221 C 51.442 42.221,51.159 42.250,51.455 42.287 M311.705 62.667 C 311.705 62.987,311.740 63.119,311.782 62.958 C 311.823 62.798,311.823 62.535,311.782 62.375 C 311.740 62.215,311.705 62.346,311.705 62.667 " stroke="none" fill="#18fc44" fill-rule="evenodd"></path><path id="path4" d="M31.372 23.000 C 31.372 23.321,31.406 23.452,31.448 23.292 C 31.490 23.131,31.490 22.869,31.448 22.708 C 31.406 22.548,31.372 22.679,31.372 23.000 M33.039 29.167 C 33.039 29.488,33.073 29.619,33.115 29.458 C 33.157 29.298,33.157 29.035,33.115 28.875 C 33.073 28.715,33.039 28.846,33.039 29.167 M32.205 35.667 C 32.205 35.987,32.240 36.119,32.282 35.958 C 32.323 35.798,32.323 35.535,32.282 35.375 C 32.240 35.215,32.205 35.346,32.205 35.667 M51.455 42.287 C 51.750 42.324,52.275 42.324,52.621 42.288 C 52.967 42.252,52.725 42.222,52.083 42.221 C 51.442 42.221,51.159 42.250,51.455 42.287 M311.705 62.667 C 311.705 62.987,311.740 63.119,311.782 62.958 C 311.823 62.798,311.823 62.535,311.782 62.375 C 311.740 62.215,311.705 62.346,311.705 62.667 " stroke="none" fill="#18fc44" fill-rule="evenodd"></path></g></svg>